<svg width="640" height="640" viewBox="0 0 640 640" xmlns="http://www.w3.org/2000/svg"><rect width="100%" height="100%" fill="white"/><g><circle data-type="point" data-label="source_trace_0" data-x="-2.6499999999999995" data-y="6.985" cx="445.65" cy="222.20999999999998" r="3" fill="red"/></g><g><circle data-type="point" data-label="source_trace_13" data-x="-2.6499999999999986" data-y="-4.476206896551725" cx="445.65000000000003" cy="382.66689655172416" r="3" fill="green"/></g><g><circle data-type="point" data-label="source_trace_13" data-x="-20.75" data-y="13.97" cx="192.25" cy="124.41999999999999" r="3" fill="blue"/></g><g><circle data-type="point" data-label="source_trace_15" data-x="-20.75" data-y="11.429999999999998" cx="192.25" cy="159.98000000000002" r="3" fill="blue"/></g><g><circle data-type="point" data-label="source_trace_4" data-x="-2.6499999999999995" data-y="1.9050000000000002" cx="445.65" cy="293.33" r="3" fill="red"/></g><g><circle data-type="point" data-label="source_trace_4" data-x="-2.6499999999999986" data-y="1.141379310344828" cx="445.65000000000003" cy="304.0206896551724" r="3" fill="green"/></g><g><circle data-type="point" data-label="source_trace_17" data-x="-20.75" data-y="8.889999999999999" cx="192.25" cy="195.54000000000002" r="3" fill="blue"/></g><g><circle data-type="point" data-label="source_trace_5" data-x="-2.6499999999999995" data-y="0.6350000000000007" cx="445.65" cy="311.11" r="3" fill="red"/></g><g><circle data-type="point" data-label="source_trace_7" data-x="-2.6499999999999995" data-y="-1.905" cx="445.65" cy="346.67" r="3" fill="red"/></g><g><circle data-type="point" data-label="source_trace_9" data-x="-2.6499999999999995" data-y="-4.444999999999999" cx="445.65" cy="382.23" r="3" fill="red"/></g><g><circle data-type="point" data-label="source_trace_12" data-x="-20.75" data-y="-13.97" cx="192.25" cy="515.58" r="3" fill="blue"/></g><g><circle data-type="point" data-label="source_trace_14" data-x="-20.75" data-y="-11.43" cx="192.25" cy="480.02" r="3" fill="red"/></g><g><circle data-type="point" data-label="source_trace_16" data-x="-20.75" data-y="-8.89" cx="192.25" cy="444.46000000000004" r="3" fill="red"/></g><g><circle data-type="point" data-label="source_trace_18" data-x="-2.6499999999999986" data-y="0.6306896551724146" cx="445.65000000000003" cy="311.1703448275862" r="3" fill="green"/></g><g><circle data-type="point" data-label="source_trace_18" data-x="-20.75" data-y="-6.3500000000000005" cx="192.25" cy="408.9" r="3" fill="green"/></g><g><circle data-type="point" data-label="source_trace_20" data-x="-2.6499999999999986" data-y="2.54" cx="445.65000000000003" cy="284.44" r="3" fill="red"/></g><g><circle data-type="point" data-label="source_trace_20" data-x="-20.75" data-y="-3.8100000000000005" cx="192.25" cy="373.34000000000003" r="3" fill="red"/></g><g><circle data-type="point" data-label="source_trace_22" data-x="-2.6499999999999986" data-y="4.205517241379312" cx="445.65000000000003" cy="261.12275862068964" r="3" fill="green"/></g><g><circle data-type="point" data-label="source_trace_22" data-x="-20.75" data-y="-1.2700000000000014" cx="192.25" cy="337.78000000000003" r="3" fill="green"/></g><g><circle data-type="point" data-label="source_trace_23" data-x="-2.6499999999999986" data-y="5.226896551724138" cx="445.65000000000003" cy="246.82344827586206" r="3" fill="green"/></g><g><circle data-type="point" data-label="source_trace_23" data-x="-20.75" data-y="1.2699999999999996" cx="192.25" cy="302.22" r="3" fill="green"/></g><g><circle data-type="point" data-label="source_trace_19" data-x="-2.6499999999999986" data-y="1.2700000000000005" cx="445.65000000000003" cy="302.21999999999997" r="3" fill="red"/></g><g><circle data-type="point" data-label="source_trace_19" data-x="-20.75" data-y="6.35" cx="192.25" cy="231.10000000000002" r="3" fill="red"/></g><g><circle data-type="point" data-label="source_trace_21" data-x="-2.6499999999999986" data-y="3.6948275862068964" cx="445.65000000000003" cy="268.27241379310345" r="3" fill="green"/></g><g><circle data-type="point" data-label="source_trace_21" data-x="-20.75" data-y="3.8100000000000005" cx="192.25" cy="266.65999999999997" r="3" fill="green"/></g><g><circle data-type="point" data-label="source_trace_0" data-x="-2.6499999999999986" data-y="-18.89" cx="445.65000000000003" cy="584.46" r="3" fill="blue"/></g><g><circle data-type="point" data-label="source_trace_12" data-x="-2.6499999999999986" data-y="-17.78" cx="445.65000000000003" cy="568.9200000000001" r="3" fill="blue"/></g><g><circle data-type="point" data-label="source_trace_14" data-x="-2.6499999999999986" data-y="-16.669999999999998" cx="445.65000000000003" cy="553.38" r="3" fill="red"/></g><g><circle data-type="point" data-label="source_trace_15" data-x="-2.6499999999999986" data-y="-13.34" cx="445.65000000000003" cy="506.76" r="3" fill="red"/></g><g><circle data-type="point" data-label="source_trace_16" data-x="-2.6499999999999986" data-y="-14.45" cx="445.65000000000003" cy="522.3" r="3" fill="red"/></g><g><circle data-type="point" data-label="source_trace_17" data-x="-2.6499999999999986" data-y="-15.559999999999999" cx="445.65000000000003" cy="537.8399999999999" r="3" fill="red"/></g><g><circle data-type="point" data-label="source_trace_5" data-x="-2.6499999999999986" data-y="-10.009999999999998" cx="445.65000000000003" cy="460.14" r="3" fill="red"/></g><g><circle data-type="point" data-label="source_trace_7" data-x="-2.6499999999999986" data-y="-11.12" cx="445.65000000000003" cy="475.67999999999995" r="3" fill="red"/></g><g><circle data-type="point" data-label="source_trace_9" data-x="-2.6499999999999986" data-y="-12.23" cx="445.65000000000003" cy="491.22" r="3" fill="red"/></g><g><polyline data-points="-20.5,11.25 -20,10.75 -19.5,10.25 -19,9.75 -18.5,9.25 -18,8.75 -17.5,8.25 -17,7.75 -16.5,7.25 -16,6.75 -15.5,6.25 -15,5.75 -14.5,5.25 -14,4.75 -13.5,4.25 -13,3.75 -12.5,3.25 -12,2.75 -11.5,2.25 -11,1.75 -10.5,1.25 -10,0.75 -9.5,0.25 -9,-0.25 -8.5,-0.75 -8,-1.25 -7.5,-1.75 -7,-2.25 -6.5,-2.75 -6,-3.25 -5.5,-3.75 -5,-4.25 -4.5,-4.75 -4,-5.25 -3.5,-5.75 -3,-6.25 -2.5,-6.75 -2.5,-7.25 -2.5,-7.75 -2.5,-8.25 -2.5,-8.75 -2.5,-9.25 -2.5,-9.75 -2.5,-10.25 -2.5,-10.75 -2.5,-11.25 -2.5,-11.75 -2.5,-12.25 -2.5,-12.75 -2.5,-13.25" data-type="line" data-label="" points="195.75,162.5 202.75,169.5 209.75,176.5 216.75,183.5 223.75,190.5 230.75,197.5 237.75,204.5 244.75,211.5 251.75,218.5 258.75,225.5 265.75,232.5 272.75,239.5 279.75,246.5 286.75,253.5 293.75,260.5 300.75,267.5 307.75,274.5 314.75,281.5 321.75,288.5 328.75,295.5 335.75,302.5 342.75,309.5 349.75,316.5 356.75,323.5 363.75,330.5 370.75,337.5 377.75,344.5 384.75,351.5 391.75,358.5 398.75,365.5 405.75,372.5 412.75,379.5 419.75,386.5 426.75,393.5 433.75,400.5 440.75,407.5 447.75,414.5 447.75,421.5 447.75,428.5 447.75,435.5 447.75,442.5 447.75,449.5 447.75,456.5 447.75,463.5 447.75,470.5 447.75,477.5 447.75,484.5 447.75,491.5 447.75,498.5 447.75,505.5" fill="none" stroke="blue" stroke-width="1.4000000000000001"/></g><g><polyline data-points="-2.5,-4.25 -3,-3.75 -3.5,-3.25 -4,-2.75 -4.5,-2.25 -5,-1.75 -5.5,-1.25 -6,-0.75 -6.5,-0.25 -7,0.25 -7.5,0.75 -8,1.25 -8.5,1.75 -9,2.25 -9.5,2.75 -10,3.25 -10.5,3.75 -11,4.25 -11.5,4.75 -12,5.25 -12.5,5.75 -13,6.25 -13.5,6.75 -14,7.25 -14.5,7.75 -15,8.25 -15.5,8.75 -16,9.25 -16.5,9.75 -17,10.25 -17.5,10.75 -18,11.25 -18.5,11.75 -19,12.25 -19.5,12.75 -20,13.25 -20.5,13.75" data-type="line" data-label="" points="447.75,379.5 440.75,372.5 433.75,365.5 426.75,358.5 419.75,351.5 412.75,344.5 405.75,337.5 398.75,330.5 391.75,323.5 384.75,316.5 377.75,309.5 370.75,302.5 363.75,295.5 356.75,288.5 349.75,281.5 342.75,274.5 335.75,267.5 328.75,260.5 321.75,253.5 314.75,246.5 307.75,239.5 300.75,232.5 293.75,225.5 286.75,218.5 279.75,211.5 272.75,204.5 265.75,197.5 258.75,190.5 251.75,183.5 244.75,176.5 237.75,169.5 230.75,162.5 223.75,155.5 216.75,148.5 209.75,141.5 202.75,134.5 195.75,127.5" fill="none" stroke="green" stroke-width="1.4000000000000001"/></g><g><polyline data-points="-2.5,4.25 -3,3.75 -3.5,3.25 -4,2.75 -4.5,2.25 -5,1.75 -5.5,1.25 -6,0.75" data-type="line" data-label="" points="447.75,260.5 440.75,267.5 433.75,274.5 426.75,281.5 419.75,288.5 412.75,295.5 405.75,302.5 398.75,309.5" fill="none" stroke="green" stroke-width="1.4000000000000001"/></g><g><polyline data-points="-6,0.75 -6.5,0.25 -7,-0.25 -7.5,-0.75 -8,-1.25 -8.5,-1.25 -9,-1.25 -9.5,-1.25 -10,-1.25 -10.5,-1.25 -11,-1.25 -11.5,-1.25 -12,-1.25 -12.5,-1.25 -13,-1.25 -13.5,-1.25 -14,-1.25 -14.5,-1.25 -15,-1.25 -15.5,-1.25 -16,-1.25 -16.5,-1.25 -17,-1.25 -17.5,-1.25 -18,-1.25 -18.5,-1.25 -19,-1.25 -19.5,-1.25 -20,-1.25 -20.5,-1.25" data-type="line" data-label="" points="398.75,309.5 391.75,316.5 384.75,323.5 377.75,330.5 370.75,337.5 363.75,337.5 356.75,337.5 349.75,337.5 342.75,337.5 335.75,337.5 328.75,337.5 321.75,337.5 314.75,337.5 307.75,337.5 300.75,337.5 293.75,337.5 286.75,337.5 279.75,337.5 272.75,337.5 265.75,337.5 258.75,337.5 251.75,337.5 244.75,337.5 237.75,337.5 230.75,337.5 223.75,337.5 216.75,337.5 209.75,337.5 202.75,337.5 195.75,337.5" fill="none" stroke="red" stroke-width="1.4000000000000001"/></g><g><polyline data-points="-20.5,-8.75 -20,-9.25 -19.5,-9.75 -19,-10.25 -18.5,-10.75 -18,-11.25 -17.5,-11.75 -17,-12.25 -16.5,-12.75 -16,-13.25 -15.5,-13.75 -15,-14.25 -14.5,-14.25 -14,-14.25 -13.5,-14.25 -13,-14.25 -12.5,-14.25 -12,-14.25 -11.5,-14.25 -11,-14.25 -10.5,-14.25 -10,-14.25 -9.5,-14.25 -9,-14.25 -8.5,-14.25 -8,-14.25 -7.5,-14.25 -7,-14.25" data-type="line" data-label="" points="195.75,442.5 202.75,449.5 209.75,456.5 216.75,463.5 223.75,470.5 230.75,477.5 237.75,484.5 244.75,491.5 251.75,498.5 258.75,505.5 265.75,512.5 272.75,519.5 279.75,519.5 286.75,519.5 293.75,519.5 300.75,519.5 307.75,519.5 314.75,519.5 321.75,519.5 328.75,519.5 335.75,519.5 342.75,519.5 349.75,519.5 356.75,519.5 363.75,519.5 370.75,519.5 377.75,519.5 384.75,519.5" fill="none" stroke="red" stroke-width="1.4000000000000001"/></g><g><polyline data-points="-7,-14.25 -6.5,-14.25 -6,-14.25 -5.5,-14.25 -5,-14.25 -4.5,-14.25 -4,-14.25 -3.5,-14.25 -3,-14.25 -2.5,-14.25" data-type="line" data-label="" points="384.75,519.5 391.75,519.5 398.75,519.5 405.75,519.5 412.75,519.5 419.75,519.5 426.75,519.5 433.75,519.5 440.75,519.5 447.75,519.5" fill="none" stroke="blue" stroke-width="1.4000000000000001"/></g><g><polyline data-points="-20.5,-13.75 -20,-14.25 -19.5,-14.75 -19,-15.25 -18.5,-15.75 -18,-16.25 -17.5,-16.75 -17,-17.25 -16.5,-17.75 -16,-17.75 -15.5,-17.75 -15,-17.75 -14.5,-17.75 -14,-17.75 -13.5,-17.75 -13,-17.75 -12.5,-17.75 -12,-17.75 -11.5,-17.75 -11,-17.75 -10.5,-17.75 -10,-17.75 -9.5,-17.75 -9,-17.75 -8.5,-17.75 -8,-17.75 -7.5,-17.75 -7,-17.75 -6.5,-17.75 -6,-17.75 -5.5,-17.75 -5,-17.75 -4.5,-17.75 -4,-17.75 -3.5,-17.75 -3,-17.75 -2.5,-17.75" data-type="line" data-label="" points="195.75,512.5 202.75,519.5 209.75,526.5 216.75,533.5 223.75,540.5 230.75,547.5 237.75,554.5 244.75,561.5 251.75,568.5 258.75,568.5 265.75,568.5 272.75,568.5 279.75,568.5 286.75,568.5 293.75,568.5 300.75,568.5 307.75,568.5 314.75,568.5 321.75,568.5 328.75,568.5 335.75,568.5 342.75,568.5 349.75,568.5 356.75,568.5 363.75,568.5 370.75,568.5 377.75,568.5 384.75,568.5 391.75,568.5 398.75,568.5 405.75,568.5 412.75,568.5 419.75,568.5 426.75,568.5 433.75,568.5 440.75,568.5 447.75,568.5" fill="none" stroke="blue" stroke-width="1.4000000000000001"/></g><g><polyline data-points="-2.5,5.25 -3,5.25 -3.5,4.75 -4,4.25 -4.5,3.75 -5,3.25 -5.5,2.75 -6,2.25 -6.5,1.75" data-type="line" data-label="" points="447.75,246.5 440.75,246.5 433.75,253.5 426.75,260.5 419.75,267.5 412.75,274.5 405.75,281.5 398.75,288.5 391.75,295.5" fill="none" stroke="green" stroke-width="1.4000000000000001"/></g><g><polyline data-points="-6.5,1.75 -7,1.25 -7.5,1.25 -8,1.25 -8.5,1.25 -9,1.25 -9.5,1.25 -10,1.25 -10.5,1.25 -11,1.25 -11.5,1.25 -12,1.25 -12.5,1.25 -13,1.25 -13.5,1.25 -14,1.25 -14.5,1.25 -15,1.25 -15.5,1.25 -16,1.25 -16.5,1.25" data-type="line" data-label="" points="391.75,295.5 384.75,302.5 377.75,302.5 370.75,302.5 363.75,302.5 356.75,302.5 349.75,302.5 342.75,302.5 335.75,302.5 328.75,302.5 321.75,302.5 314.75,302.5 307.75,302.5 300.75,302.5 293.75,302.5 286.75,302.5 279.75,302.5 272.75,302.5 265.75,302.5 258.75,302.5 251.75,302.5" fill="none" stroke="red" stroke-width="1.4000000000000001"/></g><g><polyline data-points="-16.5,1.25 -17,1.25 -17.5,1.25 -18,1.25 -18.5,1.25 -19,1.25 -19.5,1.25 -20,1.25 -20.5,1.25" data-type="line" data-label="" points="251.75,302.5 244.75,302.5 237.75,302.5 230.75,302.5 223.75,302.5 216.75,302.5 209.75,302.5 202.75,302.5 195.75,302.5" fill="none" stroke="green" stroke-width="1.4000000000000001"/></g><g><polyline data-points="-2.5,1.75 -2.5,1.25" data-type="line" data-label="" points="447.75,295.5 447.75,302.5" fill="none" stroke="green" stroke-width="1.4000000000000001"/></g><g><polyline data-points="-2.5,-4.25 -3,-4.75 -3.5,-5.25 -3.5,-5.75 -3.5,-6.25 -3.5,-6.75 -3.5,-7.25 -3.5,-7.75 -3.5,-8.25 -3.5,-8.75 -3.5,-9.25 -3.5,-9.75 -3.5,-10.25 -3.5,-10.75 -3.5,-11.25 -3.5,-11.75 -3,-12.25 -2.5,-12.25" data-type="line" data-label="" points="447.75,379.5 440.75,386.5 433.75,393.5 433.75,400.5 433.75,407.5 433.75,414.5 433.75,421.5 433.75,428.5 433.75,435.5 433.75,442.5 433.75,449.5 433.75,456.5 433.75,463.5 433.75,470.5 433.75,477.5 433.75,484.5 440.75,491.5 447.75,491.5" fill="none" stroke="red" stroke-width="1.4000000000000001"/></g><g><polyline data-points="-2.5,1.25 -3,0.75 -3.5,1.25 -4,1.75 -4.5,2.25 -5,2.75 -5.5,3.25 -6,3.75 -6.5,4.25 -7,4.75 -7.5,5.25 -8,5.75 -8.5,6.25 -9,6.25 -9.5,6.25 -10,6.25 -10.5,6.25 -11,6.25 -11.5,6.25 -12,6.25 -12.5,6.25 -13,6.25 -13.5,6.25 -14,6.25 -14.5,6.25 -15,6.25 -15.5,6.25 -16,6.25 -16.5,6.25 -17,6.25 -17.5,6.25 -18,6.25 -18.5,6.25 -19,6.25 -19.5,6.25 -20,6.25 -20.5,6.25" data-type="line" data-label="" points="447.75,302.5 440.75,309.5 433.75,302.5 426.75,295.5 419.75,288.5 412.75,281.5 405.75,274.5 398.75,267.5 391.75,260.5 384.75,253.5 377.75,246.5 370.75,239.5 363.75,232.5 356.75,232.5 349.75,232.5 342.75,232.5 335.75,232.5 328.75,232.5 321.75,232.5 314.75,232.5 307.75,232.5 300.75,232.5 293.75,232.5 286.75,232.5 279.75,232.5 272.75,232.5 265.75,232.5 258.75,232.5 251.75,232.5 244.75,232.5 237.75,232.5 230.75,232.5 223.75,232.5 216.75,232.5 209.75,232.5 202.75,232.5 195.75,232.5" fill="none" stroke="red" stroke-width="1.4000000000000001"/></g><g><polyline data-points="-20.5,-11.25 -20,-11.75 -19.5,-12.25 -19,-12.75 -18.5,-13.25 -18,-13.75 -17.5,-14.25 -17,-14.75 -16.5,-15.25 -16,-15.75 -15.5,-16.25 -15,-16.75 -14.5,-16.75 -14,-16.75 -13.5,-16.75 -13,-16.75 -12.5,-16.75 -12,-16.75 -11.5,-16.75 -11,-16.75 -10.5,-16.75 -10,-16.75 -9.5,-16.75 -9,-16.75 -8.5,-16.75 -8,-16.75 -7.5,-16.75 -7,-16.75 -6.5,-16.75 -6,-16.75 -5.5,-16.75 -5,-16.75 -4.5,-16.75 -4,-16.75 -3.5,-16.75 -3,-16.75 -2.5,-16.75" data-type="line" data-label="" points="195.75,477.5 202.75,484.5 209.75,491.5 216.75,498.5 223.75,505.5 230.75,512.5 237.75,519.5 244.75,526.5 251.75,533.5 258.75,540.5 265.75,547.5 272.75,554.5 279.75,554.5 286.75,554.5 293.75,554.5 300.75,554.5 307.75,554.5 314.75,554.5 321.75,554.5 328.75,554.5 335.75,554.5 342.75,554.5 349.75,554.5 356.75,554.5 363.75,554.5 370.75,554.5 377.75,554.5 384.75,554.5 391.75,554.5 398.75,554.5 405.75,554.5 412.75,554.5 419.75,554.5 426.75,554.5 433.75,554.5 440.75,554.5 447.75,554.5" fill="none" stroke="red" stroke-width="1.4000000000000001"/></g><g><polyline data-points="-2.5,2.75 -3,2.25 -3.5,1.75 -4,1.25 -4.5,0.75 -5,0.25 -5.5,-0.25 -6,-0.75 -6.5,-1.25" data-type="line" data-label="" points="447.75,281.5 440.75,288.5 433.75,295.5 426.75,302.5 419.75,309.5 412.75,316.5 405.75,323.5 398.75,330.5 391.75,337.5" fill="none" stroke="blue" stroke-width="1.4000000000000001"/></g><g><polyline data-points="-6.5,-1.25 -7,-1.75 -7.5,-2.25 -8,-2.75 -8.5,-3.25 -9,-3.75 -9.5,-3.75 -10,-3.75 -10.5,-3.75 -11,-3.75 -11.5,-3.75 -12,-3.75 -12.5,-3.75 -13,-3.75 -13.5,-3.75 -14,-3.75 -14.5,-3.75 -15,-3.75 -15.5,-3.75 -16,-3.75 -16.5,-3.75 -17,-3.75 -17.5,-3.75 -18,-3.75 -18.5,-3.75 -19,-3.75 -19.5,-3.75 -20,-3.75 -20.5,-3.75" data-type="line" data-label="" points="391.75,337.5 384.75,344.5 377.75,351.5 370.75,358.5 363.75,365.5 356.75,372.5 349.75,372.5 342.75,372.5 335.75,372.5 328.75,372.5 321.75,372.5 314.75,372.5 307.75,372.5 300.75,372.5 293.75,372.5 286.75,372.5 279.75,372.5 272.75,372.5 265.75,372.5 258.75,372.5 251.75,372.5 244.75,372.5 237.75,372.5 230.75,372.5 223.75,372.5 216.75,372.5 209.75,372.5 202.75,372.5 195.75,372.5" fill="none" stroke="red" stroke-width="1.4000000000000001"/></g><g><polyline data-points="-2.5,3.75 -3,3.75 -3.5,3.75 -4,3.75 -4.5,3.75 -5,3.75 -5.5,3.75 -6,3.75 -6.5,3.75 -7,3.75 -7.5,3.75 -8,3.75 -8.5,3.75 -9,3.75 -9.5,3.75 -10,3.75 -10.5,3.75 -11,3.75 -11.5,3.75" data-type="line" data-label="" points="447.75,267.5 440.75,267.5 433.75,267.5 426.75,267.5 419.75,267.5 412.75,267.5 405.75,267.5 398.75,267.5 391.75,267.5 384.75,267.5 377.75,267.5 370.75,267.5 363.75,267.5 356.75,267.5 349.75,267.5 342.75,267.5 335.75,267.5 328.75,267.5 321.75,267.5" fill="none" stroke="blue" stroke-width="1.4000000000000001"/></g><g><polyline data-points="-11.5,3.75 -12,3.75 -12.5,3.75 -13,3.75 -13.5,3.75 -14,3.75 -14.5,3.75 -15,3.75 -15.5,3.75 -16,3.75 -16.5,3.75 -17,3.75 -17.5,3.75 -18,3.75" data-type="line" data-label="" points="321.75,267.5 314.75,267.5 307.75,267.5 300.75,267.5 293.75,267.5 286.75,267.5 279.75,267.5 272.75,267.5 265.75,267.5 258.75,267.5 251.75,267.5 244.75,267.5 237.75,267.5 230.75,267.5" fill="none" stroke="red" stroke-width="1.4000000000000001"/></g><g><polyline data-points="-18,3.75 -18.5,3.75 -19,3.75 -19.5,3.75 -20,3.75 -20.5,3.75" data-type="line" data-label="" points="230.75,267.5 223.75,267.5 216.75,267.5 209.75,267.5 202.75,267.5 195.75,267.5" fill="none" stroke="green" stroke-width="1.4000000000000001"/></g><g><polyline data-points="-20.5,8.75 -20,8.25 -19.5,7.75 -19,7.25 -18.5,6.75 -18,6.25 -17.5,5.75 -17,5.25 -16.5,4.75 -16,4.25 -15.5,3.75 -15,3.25 -14.5,2.75 -14,2.25 -13.5,1.75 -13,1.25 -12.5,0.75 -12,0.25 -11.5,-0.25 -11,-0.75 -10.5,-1.25 -10,-1.75 -9.5,-2.25 -9,-2.75 -8.5,-3.25 -8,-3.75 -7.5,-4.25 -7,-4.75 -6.5,-5.25 -6,-5.75 -5.5,-6.25 -5,-6.75 -4.5,-7.25 -4,-7.75 -3.5,-8.25 -3.5,-8.75 -3.5,-9.25 -3.5,-9.75 -3.5,-10.25 -3.5,-10.75 -3.5,-11.25 -3.5,-11.75 -3.5,-12.25 -3.5,-12.75 -3.5,-13.25" data-type="line" data-label="" points="195.75,197.5 202.75,204.5 209.75,211.5 216.75,218.5 223.75,225.5 230.75,232.5 237.75,239.5 244.75,246.5 251.75,253.5 258.75,260.5 265.75,267.5 272.75,274.5 279.75,281.5 286.75,288.5 293.75,295.5 300.75,302.5 307.75,309.5 314.75,316.5 321.75,323.5 328.75,330.5 335.75,337.5 342.75,344.5 349.75,351.5 356.75,358.5 363.75,365.5 370.75,372.5 377.75,379.5 384.75,386.5 391.75,393.5 398.75,400.5 405.75,407.5 412.75,414.5 419.75,421.5 426.75,428.5 433.75,435.5 433.75,442.5 433.75,449.5 433.75,456.5 433.75,463.5 433.75,470.5 433.75,477.5 433.75,484.5 433.75,491.5 433.75,498.5 433.75,505.5" fill="none" stroke="blue" stroke-width="1.4000000000000001"/></g><g><polyline data-points="-3.5,-13.25 -3.5,-13.75 -3.5,-14.25 -3,-14.75 -2.5,-15.25 -2.5,-15.75" data-type="line" data-label="" points="433.75,505.5 433.75,512.5 433.75,519.5 440.75,526.5 447.75,533.5 447.75,540.5" fill="none" stroke="green" stroke-width="1.4000000000000001"/></g><g><polyline data-points="-2.5,6.75 -3,6.25 -3.5,6.25 -4,5.75 -4.5,5.25 -5,4.75 -5.5,4.25 -6,3.75 -6.5,3.25 -7,2.75" data-type="line" data-label="" points="447.75,225.5 440.75,232.5 433.75,232.5 426.75,239.5 419.75,246.5 412.75,253.5 405.75,260.5 398.75,267.5 391.75,274.5 384.75,281.5" fill="none" stroke="green" stroke-width="1.4000000000000001"/></g><g><polyline data-points="-7,2.75 -6.5,2.75 -6,2.25 -5.5,1.75" data-type="line" data-label="" points="384.75,281.5 391.75,281.5 398.75,288.5 405.75,295.5" fill="none" stroke="blue" stroke-width="1.4000000000000001"/></g><g><polyline data-points="-5.5,1.75 -5,1.25 -4.5,0.75 -4.5,0.25 -4.5,-0.25 -4.5,-0.75 -4.5,-1.25 -4.5,-1.75 -4.5,-2.25 -4.5,-2.75 -4.5,-3.25 -4.5,-3.75 -4.5,-4.25 -4.5,-4.75 -4.5,-5.25 -4.5,-5.75 -4.5,-6.25 -4.5,-6.75 -4.5,-7.25 -4.5,-7.75 -4.5,-8.25 -4.5,-8.75 -4.5,-9.25 -4.5,-9.75 -4.5,-10.25 -4.5,-10.75 -4.5,-11.25 -4.5,-11.75 -4.5,-12.25 -4.5,-12.75 -4.5,-13.25 -4,-13.75 -3.5,-14.25 -3.5,-14.75 -3.5,-15.25 -3.5,-15.75" data-type="line" data-label="" points="405.75,295.5 412.75,302.5 419.75,309.5 419.75,316.5 419.75,323.5 419.75,330.5 419.75,337.5 419.75,344.5 419.75,351.5 419.75,358.5 419.75,365.5 419.75,372.5 419.75,379.5 419.75,386.5 419.75,393.5 419.75,400.5 419.75,407.5 419.75,414.5 419.75,421.5 419.75,428.5 419.75,435.5 419.75,442.5 419.75,449.5 419.75,456.5 419.75,463.5 419.75,470.5 419.75,477.5 419.75,484.5 419.75,491.5 419.75,498.5 419.75,505.5 426.75,512.5 433.75,519.5 433.75,526.5 433.75,533.5 433.75,540.5" fill="none" stroke="red" stroke-width="1.4000000000000001"/></g><g><polyline data-points="-3.5,-15.75 -3,-16.25 -2.5,-16.75" data-type="line" data-label="" points="433.75,540.5 440.75,547.5 447.75,554.5" fill="none" stroke="blue" stroke-width="1.4000000000000001"/></g><g><polyline data-points="-2.5,-16.75 -2.5,-17.25 -2.5,-17.75 -2.5,-18.25 -2.5,-18.75" data-type="line" data-label="" points="447.75,554.5 447.75,561.5 447.75,568.5 447.75,575.5 447.75,582.5" fill="none" stroke="green" stroke-width="1.4000000000000001"/></g><g><polyline data-points="-2.5,0.75 -3,0.25 -3.5,-0.25 -4,-0.75 -4.5,-1.25" data-type="line" data-label="" points="447.75,309.5 440.75,316.5 433.75,323.5 426.75,330.5 419.75,337.5" fill="none" stroke="green" stroke-width="1.4000000000000001"/></g><g><polyline data-points="-4.5,-1.25 -5,-1.75 -5.5,-2.25" data-type="line" data-label="" points="419.75,337.5 412.75,344.5 405.75,351.5" fill="none" stroke="blue" stroke-width="1.4000000000000001"/></g><g><polyline data-points="-5.5,-2.25 -6,-2.75 -6.5,-3.25 -7,-3.75 -7.5,-4.25 -8,-4.75 -8.5,-5.25 -9,-5.75 -9.5,-6.25 -10,-6.25 -10.5,-6.25 -11,-6.25 -11.5,-6.25 -12,-6.25 -12.5,-6.25 -13,-6.25 -13.5,-6.25 -14,-6.25 -14.5,-6.25 -15,-6.25" data-type="line" data-label="" points="405.75,351.5 398.75,358.5 391.75,365.5 384.75,372.5 377.75,379.5 370.75,386.5 363.75,393.5 356.75,400.5 349.75,407.5 342.75,407.5 335.75,407.5 328.75,407.5 321.75,407.5 314.75,407.5 307.75,407.5 300.75,407.5 293.75,407.5 286.75,407.5 279.75,407.5 272.75,407.5" fill="none" stroke="red" stroke-width="1.4000000000000001"/></g><g><polyline data-points="-15,-6.25 -15.5,-6.25 -16,-6.25 -16.5,-6.25 -17,-6.25 -17.5,-6.25 -18,-6.25 -18.5,-6.25 -19,-6.25 -19.5,-6.25 -20,-6.25 -20.5,-6.25" data-type="line" data-label="" points="272.75,407.5 265.75,407.5 258.75,407.5 251.75,407.5 244.75,407.5 237.75,407.5 230.75,407.5 223.75,407.5 216.75,407.5 209.75,407.5 202.75,407.5 195.75,407.5" fill="none" stroke="green" stroke-width="1.4000000000000001"/></g><g><polyline data-points="-2.5,-1.75 -2.5,-2.25 -2.5,-2.75 -2.5,-3.25" data-type="line" data-label="" points="447.75,344.5 447.75,351.5 447.75,358.5 447.75,365.5" fill="none" stroke="red" stroke-width="1.4000000000000001"/></g><g><polyline data-points="-2.5,-3.25 -2.5,-3.75 -2.5,-4.25 -2.5,-4.75" data-type="line" data-label="" points="447.75,365.5 447.75,372.5 447.75,379.5 447.75,386.5" fill="none" stroke="blue" stroke-width="1.4000000000000001"/></g><g><polyline data-points="-2.5,-4.75 -3,-5.25 -3,-5.75 -3,-6.25 -2.5,-6.75 -2.5,-7.25 -2.5,-7.75 -2.5,-8.25 -2.5,-8.75 -2.5,-9.25 -2.5,-9.75 -2.5,-10.25 -2.5,-10.75 -2.5,-11.25" data-type="line" data-label="" points="447.75,386.5 440.75,393.5 440.75,400.5 440.75,407.5 447.75,414.5 447.75,421.5 447.75,428.5 447.75,435.5 447.75,442.5 447.75,449.5 447.75,456.5 447.75,463.5 447.75,470.5 447.75,477.5" fill="none" stroke="green" stroke-width="1.4000000000000001"/></g><g><polyline data-points="-2.5,0.75 -2.5,0.25 -2.5,-0.25 -3,-0.75 -3.5,-1.25 -3.5,-1.75 -3.5,-2.25 -3.5,-2.75 -3.5,-3.25 -3.5,-3.75" data-type="line" data-label="" points="447.75,309.5 447.75,316.5 447.75,323.5 440.75,330.5 433.75,337.5 433.75,344.5 433.75,351.5 433.75,358.5 433.75,365.5 433.75,372.5" fill="none" stroke="red" stroke-width="1.4000000000000001"/></g><g><polyline data-points="-3.5,-3.75 -3.5,-4.25 -3.5,-4.75 -3.5,-5.25 -3,-5.75 -2.5,-6.25" data-type="line" data-label="" points="433.75,372.5 433.75,379.5 433.75,386.5 433.75,393.5 440.75,400.5 447.75,407.5" fill="none" stroke="blue" stroke-width="1.4000000000000001"/></g><g><polyline data-points="-2.5,-6.25 -2.5,-6.75 -2.5,-7.25 -2.5,-7.75 -2.5,-8.25 -2.5,-8.75 -2.5,-9.25 -2.5,-9.75 -2.5,-10.25" data-type="line" data-label="" points="447.75,407.5 447.75,414.5 447.75,421.5 447.75,428.5 447.75,435.5 447.75,442.5 447.75,449.5 447.75,456.5 447.75,463.5" fill="none" stroke="red" stroke-width="1.4000000000000001"/></g><g><rect data-type="rect" data-label="" data-x="-11.7" data-y="0" x="192.25" y="40" width="253.40000000000003" height="560" fill="none" stroke="gray" stroke-width="0.07142857142857142"/></g><g id="crosshair" style="display: none"><line id="crosshair-h" y1="0" y2="640" stroke="#666" stroke-width="0.5"/><line id="crosshair-v" x1="0" x2="640" stroke="#666" stroke-width="0.5"/><text id="coordinates" font-family="monospace" font-size="12" fill="#666"></text></g><script><![CDATA[
              document.currentScript.parentElement.addEventListener('mousemove', (e) => {
                const svg = e.currentTarget;
                const rect = svg.getBoundingClientRect();
                const x = e.clientX - rect.left;
                const y = e.clientY - rect.top;
                const crosshair = svg.getElementById('crosshair');
                const h = svg.getElementById('crosshair-h');
                const v = svg.getElementById('crosshair-v');
                const coords = svg.getElementById('coordinates');
                
                crosshair.style.display = 'block';
                h.setAttribute('x1', '0');
                h.setAttribute('x2', '640');
                h.setAttribute('y1', y);
                h.setAttribute('y2', y);
                v.setAttribute('x1', x);
                v.setAttribute('x2', x);
                v.setAttribute('y1', '0');
                v.setAttribute('y2', '640');

                // Calculate real coordinates using inverse transformation
                const matrix = {"a":14,"c":0,"e":482.75,"b":0,"d":-14,"f":320};
                // Manually invert and apply the affine transform
                // Since we only use translate and scale, we can directly compute:
                // x' = (x - tx) / sx
                // y' = (y - ty) / sy
                const sx = matrix.a;
                const sy = matrix.d;
                const tx = matrix.e; 
                const ty = matrix.f;
                const realPoint = {
                  x: (x - tx) / sx,
                  y: (y - ty) / sy // Flip y back since we used negative scale
                }
                
                coords.textContent = `(${realPoint.x.toFixed(2)}, ${realPoint.y.toFixed(2)})`;
                coords.setAttribute('x', (x + 5).toString());
                coords.setAttribute('y', (y - 5).toString());
              });
              document.currentScript.parentElement.addEventListener('mouseleave', () => {
                document.currentScript.parentElement.getElementById('crosshair').style.display = 'none';
              });
            ]]></script></svg>